HIERARCHY
ROOT Hips
{
	OFFSET -14.64140 90.27770 -84.91600
	CHANNELS 6 Xposition Yposition Zposition Zrotation Xrotation Yrotation
	JOINT Spine
	{
		OFFSET 0.00000 13.20850 -1.60436
		CHANNELS 3 Zrotation Xrotation Yrotation
		JOINT Spine1
		{
			OFFSET 0.00000 8.61716 0.00000
			CHANNELS 3 Zrotation Xrotation Yrotation
			JOINT Spine2
			{
				OFFSET 0.00000 8.61717 0.00000
				CHANNELS 3 Zrotation Xrotation Yrotation
				JOINT Spine3
				{
					OFFSET 0.00000 8.61717 0.00000
					CHANNELS 3 Zrotation Xrotation Yrotation
					JOINT Neck
					{
						OFFSET 0.00000 11.07920 1.10792
						CHANNELS 3 Zrotation Xrotation Yrotation
						JOINT Neck1
						{
							OFFSET 0.00000 7.08032 0.00000
							CHANNELS 3 Zrotation Xrotation Yrotation
							JOINT Head
							{
								OFFSET 0.00000 7.08031 0.00000
								CHANNELS 3 Zrotation Xrotation Yrotation
								End site
								{
									OFFSET 0.00000 0.00000 0.00000
								}
							}
						}
					}
					JOINT RightShoulder
					{
						OFFSET -0.01000 7.91373 5.19711
						CHANNELS 3 Zrotation Xrotation Yrotation
						JOINT RightArm
						{
							OFFSET -18.41580 0.00000 0.00000
							CHANNELS 3 Zrotation Xrotation Yrotation
							JOINT RightForeArm
							{
								OFFSET -29.11090 0.00000 0.00000
								CHANNELS 3 Zrotation Xrotation Yrotation
								JOINT RightHand
								{
									OFFSET -24.65040 0.00000 0.00000
									CHANNELS 3 Zrotation Xrotation Yrotation
									JOINT RightHandThumb1
									{
										OFFSET -5.35114 -0.85590 3.97906
										CHANNELS 3 Zrotation Xrotation Yrotation
										JOINT RightHandThumb2
										{
											OFFSET -4.52789 0.00000 0.00000
											CHANNELS 3 Zrotation Xrotation Yrotation
											JOINT RightHandThumb3
											{
												OFFSET -2.46976 0.00000 0.00000
												CHANNELS 3 Zrotation Xrotation Yrotation
												End site
												{
													OFFSET 0.00000 0.00000 0.00000
												}
											}
										}
									}
									JOINT RightHandIndex1
									{
										OFFSET -14.26970 0.00000 2.88139
										CHANNELS 3 Zrotation Xrotation Yrotation
										JOINT RightHandIndex2
										{
											OFFSET -5.48836 0.00000 0.00000
											CHANNELS 3 Zrotation Xrotation Yrotation
											JOINT RightHandIndex3
											{
												OFFSET -3.01859 0.00000 0.00000
												CHANNELS 3 Zrotation Xrotation Yrotation
												End site
												{
													OFFSET 0.00000 0.00000 0.00000
												}
											}
										}
									}
									JOINT RightHandMiddle1
									{
										OFFSET -14.26970 0.00000 -0.09147
										CHANNELS 3 Zrotation Xrotation Yrotation
										JOINT RightHandMiddle2
										{
											OFFSET -6.17441 0.00000 0.00000
											CHANNELS 3 Zrotation Xrotation Yrotation
											JOINT RightHandMiddle3
											{
												OFFSET -3.56743 0.00000 0.00000
												CHANNELS 3 Zrotation Xrotation Yrotation
												End site
												{
													OFFSET 0.00000 0.00000 0.00000
												}
											}
										}
									}
									JOINT RightHandRing1
									{
										OFFSET -12.69180 0.00000 -3.06433
										CHANNELS 3 Zrotation Xrotation Yrotation
										JOINT RightHandRing2
										{
											OFFSET -5.62556 0.00000 0.00000
											CHANNELS 3 Zrotation Xrotation Yrotation
											JOINT RightHandRing3
											{
												OFFSET -3.56744 0.00000 0.00000
												CHANNELS 3 Zrotation Xrotation Yrotation
												End site
												{
													OFFSET 0.00000 0.00000 0.00000
												}
											}
										}
									}
									JOINT RightHandPinky1
									{
										OFFSET -11.11390 0.00000 -6.03719
										CHANNELS 3 Zrotation Xrotation Yrotation
										JOINT RightHandPinky2
										{
											OFFSET -4.52789 0.00000 0.00000
											CHANNELS 3 Zrotation Xrotation Yrotation
											JOINT RightHandPinky3
											{
												OFFSET -2.46976 0.00000 0.00000
												CHANNELS 3 Zrotation Xrotation Yrotation
												End site
												{
													OFFSET 0.00000 0.00000 0.00000
												}
											}
										}
									}
								}
							}
						}
					}
					JOINT LeftShoulder
					{
						OFFSET 0.01000 7.91373 5.19711
						CHANNELS 3 Zrotation Xrotation Yrotation
						JOINT LeftArm
						{
							OFFSET 18.41580 0.00000 0.00000
							CHANNELS 3 Zrotation Xrotation Yrotation
							JOINT LeftForeArm
							{
								OFFSET 29.11090 0.00000 0.00000
								CHANNELS 3 Zrotation Xrotation Yrotation
								JOINT LeftHand
								{
									OFFSET 24.65040 0.00000 0.00000
									CHANNELS 3 Zrotation Xrotation Yrotation
									JOINT LeftHandThumb1
									{
										OFFSET 5.35114 -0.85590 3.97906
										CHANNELS 3 Zrotation Xrotation Yrotation
										JOINT LeftHandThumb2
										{
											OFFSET 4.52789 0.00000 0.00000
											CHANNELS 3 Zrotation Xrotation Yrotation
											JOINT LeftHandThumb3
											{
												OFFSET 2.46977 0.00000 0.00000
												CHANNELS 3 Zrotation Xrotation Yrotation
												End site
												{
													OFFSET 0.00000 0.00000 0.00000
												}
											}
										}
									}
									JOINT LeftHandIndex1
									{
										OFFSET 14.26970 0.00000 2.88139
										CHANNELS 3 Zrotation Xrotation Yrotation
										JOINT LeftHandIndex2
										{
											OFFSET 5.48836 0.00000 0.00000
											CHANNELS 3 Zrotation Xrotation Yrotation
											JOINT LeftHandIndex3
											{
												OFFSET 3.01859 0.00000 0.00000
												CHANNELS 3 Zrotation Xrotation Yrotation
												End site
												{
													OFFSET 0.00000 0.00000 0.00000
												}
											}
										}
									}
									JOINT LeftHandMiddle1
									{
										OFFSET 14.26970 0.00000 -0.09147
										CHANNELS 3 Zrotation Xrotation Yrotation
										JOINT LeftHandMiddle2
										{
											OFFSET 6.17440 0.00000 0.00000
											CHANNELS 3 Zrotation Xrotation Yrotation
											JOINT LeftHandMiddle3
											{
												OFFSET 3.56744 0.00000 0.00000
												CHANNELS 3 Zrotation Xrotation Yrotation
												End site
												{
													OFFSET 0.00000 0.00000 0.00000
												}
											}
										}
									}
									JOINT LeftHandRing1
									{
										OFFSET 12.69180 0.00000 -3.06433
										CHANNELS 3 Zrotation Xrotation Yrotation
										JOINT LeftHandRing2
										{
											OFFSET 5.62556 0.00000 0.00000
											CHANNELS 3 Zrotation Xrotation Yrotation
											JOINT LeftHandRing3
											{
												OFFSET 3.56744 0.00000 0.00000
												CHANNELS 3 Zrotation Xrotation Yrotation
												End site
												{
													OFFSET 0.00000 0.00000 0.00000
												}
											}
										}
									}
									JOINT LeftHandPinky1
									{
										OFFSET 11.11390 0.00000 -6.03719
										CHANNELS 3 Zrotation Xrotation Yrotation
										JOINT LeftHandPinky2
										{
											OFFSET 4.52789 0.00000 0.00000
											CHANNELS 3 Zrotation Xrotation Yrotation
											JOINT LeftHandPinky3
											{
												OFFSET 2.46976 0.00000 0.00000
												CHANNELS 3 Zrotation Xrotation Yrotation
												End site
												{
													OFFSET 0.00000 0.00000 0.00000
												}
											}
										}
									}
								}
							}
						}
					}
					JOINT pCube4
					{
						OFFSET 0.00000 10.91090 1.10792
						CHANNELS 3 Zrotation Xrotation Yrotation
						End site
						{
							OFFSET 0.00000 0.00000 0.00000
						}
					}
				}
			}
		}
	}
	JOINT RightUpLeg
	{
		OFFSET -9.98441 0.00000 0.00000
		CHANNELS 3 Zrotation Xrotation Yrotation
		JOINT RightLeg
		{
			OFFSET 0.00000 -42.11790 0.00000
			CHANNELS 3 Zrotation Xrotation Yrotation
			JOINT RightFoot
			{
				OFFSET 0.00000 -45.00020 -0.00001
				CHANNELS 3 Zrotation Xrotation Yrotation
				JOINT RightForeFoot
				{
					OFFSET 0.00000 -3.74820 0.00000
					CHANNELS 3 Zrotation Xrotation Yrotation
					JOINT RightToeBase
					{
						OFFSET 0.00000 0.06325 14.43120
						CHANNELS 3 Zrotation Xrotation Yrotation
						End site
						{
							OFFSET 0.00000 0.00000 0.00000
						}
					}
				}
			}
		}
	}
	JOINT LeftUpLeg
	{
		OFFSET 9.98441 0.00000 0.00000
		CHANNELS 3 Zrotation Xrotation Yrotation
		JOINT LeftLeg
		{
			OFFSET 0.00000 -42.11800 0.00000
			CHANNELS 3 Zrotation Xrotation Yrotation
			JOINT LeftFoot
			{
				OFFSET 0.00000 -45.00070 0.00000
				CHANNELS 3 Zrotation Xrotation Yrotation
				JOINT LeftForeFoot
				{
					OFFSET 0.00000 -3.74824 0.00000
					CHANNELS 3 Zrotation Xrotation Yrotation
					JOINT LeftToeBase
					{
						OFFSET 0.00000 0.06325 14.43110
						CHANNELS 3 Zrotation Xrotation Yrotation
						End site
						{
							OFFSET 0.00000 0.00000 0.00000
						}
					}
				}
			}
		}
	}
}
MOTION
Frames: 4
Frame Time: 0.050000
-0.03863134855680492 -0.026357127001014446 -0.030398204826593823 0.02843285689768962 0.014707869801429855 -0.03686854254989287 -4.191811126957928 5.86700189041433 -0.5267197296338275 -0.6264579199443269 3.1764307337788256 0.3193861546369207 -0.7466800015381161 -0.5001050987298001 -1.7225912100452683 -1.204690794593749 0.16648158963164794 -1.0117475331609602 -1.8182826207510303 9.670894907875212 4.0073069871295175 -0.30267740210866806 -1.1314320381394447 7.018916575240439 -1.4348381314387157 -15.552625454314558 0.6176535611292537 4.114123394183501 -0.2988456347012049 -10.107099875225877 65.56988578309026 7.340805855704838 22.357377595347884 46.62159704557019 17.973822238336798 103.05727366669346 26.569769830747685 0.06374899632380684 -11.068444903142012 4.54429727234372 -0.1657263474195545 -1.5606032697239791 0.032263103106432045 0.0188725778912419 -56.26897525953882 0.017293903657874244 0.04002254024756268 -56.27295728002524 -38.744774591951526 -0.0020210679802199123 0.004555364503963537 -0.03833652349796422 0.0013047797286466368 0.0244226617253062 0.04329538815676696 0.0007636631004434499 -0.028370155529733865 -36.72515557614608 -0.03898942245684355 -0.006218273270468575 0.01973287674856335 -0.017139706766227468 0.01226194733195789 0.013245871798828237 -0.023567252768083337 0.01986189662299138 -19.753324720955273 0.048673845161253816 0.0057631738587484264 -0.04905956758107369 -0.018617297686869514 0.025460349784255248 -0.02613671372427096 0.0379576619511188 -0.0016351264165535137 24.03745082666499 -0.024870694529270283 -0.022009258872257843 28.889531413796128 0.02321123489282908 -0.021387293284556488 28.845219043081848 0.018029964836218097 0.00545749332843339 1.8283224734970691 0.8202270585461148 9.378034513468021 -64.94161642416914 12.832732131623283 -31.48675779392344 -85.1072893342073 12.050140323951783 -120.57453129501614 -31.91690726876662 -5.502583050520114 3.192615772831245 -0.49232536527359416 0.056878155048561904 -8.156479022102408 0.03229415429549949 0.002063900371082369 44.529864767370064 0.040416758852327615 -0.013062345128979526 44.61274787958294 12.414403902909358 0.02749521924296732 -0.01871245352781947 -0.008959423528949522 -0.01304160330919152 -0.03946141113389445 -0.03447452744237537 -0.004406654535804233 0.02301122690938987 11.076394837675133 0.04173479879208435 -0.032634463215177795 -0.04507622947760208 -0.0240426043200417 0.00927648497822702 0.04107307900452068 -0.04767403142788604 0.005119940537341693 4.793412454269832 0.0018494496352253792 -0.014896145044493245 0.022840162964582387 0.029239446014175614 -0.04252389657512524 -0.037520380975780115 -0.004673318051786201 -0.01199411349995476 -5.625895272822198 0.0334143631985232 -0.0029337666373658085 -6.726478363253721 -0.011936421393008958 -0.003861907319018499 -6.757643078028439 0.0278324487870502 -0.02777975145681739 0.013686951568919727 0.019255879334403994 -0.03969843298489499 8.06231723414885 3.4953121712094464 -19.241926773237935 0.026881138652983808 10.430222720637458 -0.0053464163970132865 -5.623281763956408 -15.632229669804353 3.2374903718558508 0.010022142799874954 -0.00026368201746307824 0.03323490893175368 -0.03977084527880534 4.711051617359649 0.03502352273937863 12.437772048586936 -8.228217023876544 6.885322434027668 0.0016858369117197152 46.410566767182495 0.025185971726888343 -4.34379081548559 -14.786493826517958 -3.843628999610823 0.030089362095724777 -0.014133120262798999 0.035314593145734936 0.013012202160268578 -10.77874132748096 -0.03983887212646657 
0.03168063991504046 -0.006457202142281145 -0.014446362897668059 -0.03448390002759526 0.04608636103215767 -0.006774656093242515 -3.988791007166342 5.529675011751712 -0.5909611330743479 -0.595597083467254 3.2024433481774888 0.31936208127667126 -0.681435079234096 -0.5564362429623135 -1.6714881728317654 -1.1392910575280288 0.10835132257306 -0.990776741258065 -1.7932395299276664 9.787234241950477 4.051257901443819 -0.34151282644418457 -1.185940197589036 7.282022876982791 -1.4558437226824972 -15.7545409106276 0.7153121812101332 3.7640573610663535 -0.14598952374482682 -10.247570092422274 66.30904286629989 8.344458087738762 21.6333914231402 47.76441679337862 18.788673762345567 102.71246440208327 26.132327562571874 0.041309115650044165 -11.14175697512595 4.479112233845569 -0.1258326594768493 -1.5963129956299524 0.021382995171970558 0.01541825389136171 -56.21387852622615 0.021696077861183223 0.02428579064585157 -56.21708798714351 -38.7597152097284 -0.003066404787054426 -0.04608152558966278 0.031395510412540385 -0.007168990812928533 -0.028088375607035025 0.0383865108226584 -0.014224293241529197 -0.01468747861915775 -36.68107675013647 0.029016129854212744 -0.005613912701148949 -0.017292322405210343 0.011791229714068817 -0.026576082081311563 -0.032635289454848136 -0.023276801976041626 -0.04152133747172256 -19.730432234288628 0.03772538446113066 0.04775776012579876 -0.020916967600690495 -0.01838250669264864 0.036494584529345724 0.03891129551272543 0.03659837757021819 -0.02260792374412544 24.024609498270085 -0.00822774349076289 -0.004812648791079494 28.900727218504073 -0.029615970195803178 0.017698529111457154 28.822828666287545 0.02292923014050397 -0.03763511225692542 2.1455267713037824 0.8999843443735103 9.382565921644566 -65.75417078320258 14.071660996042503 -30.849334465316122 -87.76042042935123 12.107255059461423 -121.54961522177987 -32.36196440729457 -6.194851318972146 3.8773864109144633 -0.4986389386747423 0.04472686147153746 -8.134387188758666 0.00752851443063329 0.018726666201977528 44.58808116209939 0.0029817178756274196 0.0276850502925083 44.61507813618566 12.426706971724274 0.025392924713894226 -0.009439990432005104 -0.0179376680113611 -0.01696781139757837 -0.020691398222518077 0.03400744964551079 -0.03386526355328383 0.01335892832534016 11.113751463647384 -0.04438094570672857 -0.0032784938716958105 -0.0009089901880971369 0.009615639973071872 -0.0062945802516836576 0.011473161949284022 0.015321644211237077 -0.0172233334144202 4.772080295345492 0.014504988651569387 0.026794961255899703 -0.032442564739499156 -0.002908180680241396 0.03479835589661454 0.04822485031999689 -0.024809076561753324 0.0028687518358230385 -5.59769217017166 -0.022589133242308105 -0.004389664896958847 -6.738240596364758 -0.02770825252826206 0.00020423991236941718 -6.674921353329543 -0.010954938830344743 0.016875369767123023 -0.04512416123199145 -0.009974184535507758 -0.020423790704339587 8.045220162050173 3.493663723740659 -19.183034646587647 -2.4719024723353232e-05 10.376286087731785 0.015952260883059996 -5.634102191138093 -15.625529951479054 3.178986690074044 0.004721163475396646 -0.019392735126576584 0.013281858132711825 -0.0008947759076720492 4.727286717902325 -0.03096734656188381 12.472016457700807 -8.284131198462001 6.882371434755535 0.032440227298509886 46.35048228505469 0.004464132247704294 -4.32053144029445 -14.778340369089982 -3.8179236409248007 0.0011570972143239598 -0.015576183897478531 -0.013113113576806758 0.02150045783673402 -10.734741931721192 0.015735339155033667 
-0.04510268512278906 0.043468653356483054 0.03097902392429941 -0.00909500499890555 0.001881173246086294 0.008803051803244632 -3.737101104256408 5.203264809175285 -0.604858651583695 -0.6293213718760542 3.2416388845724384 0.29267919001799053 -0.6842463727644866 -0.5720395123596828 -1.6511313531185743 -1.141141806583783 0.06842358612975216 -0.9722998663898602 -1.8209704006924567 9.955863571450113 3.9810202963016446 -0.27762557129765486 -1.2689307487404209 7.271374561733103 -1.3419046217099309 -15.961088103544085 0.6227828819102857 3.1474180100444475 0.012136696629276262 -10.389278513111774 67.39034290585361 9.072855324711659 21.231273392885146 48.24482090997676 19.345338619807837 102.31786950736273 25.44535601557877 -0.004069892304504656 -11.050940315466491 4.478983606372738 -0.1671028524162489 -1.6270890744834305 0.03772677842160864 0.014586454565086426 -56.2776448407608 0.019814624508708183 0.035628669756015384 -56.27517583304267 -38.73106179789902 -0.036451317966252526 0.01297996248657933 0.017957022591959106 -0.011610716915473608 0.006841497403381199 -0.025707303656128264 -0.036911077903790245 0.03396478166374719 -36.73412100610373 -0.02626303997364045 0.012115643441127378 0.008521605207147806 -0.009167373063665673 0.007838817151540584 0.021954636557440083 0.006138885495211942 0.02842390167769518 -19.778994484664807 -0.0392835585334936 0.021732930618143555 -0.010733484468666434 -0.001597763661451546 -0.04305439658770812 -0.04902211647965696 0.031116617998824113 0.04863602436703151 24.04433837038032 0.049918541991108845 0.016402072867911552 28.87927244138514 -0.01635236478418129 -0.015444718702588794 28.850820038957217 0.006435085584011643 0.01234074853556748 2.6473814287343105 1.0064235864808708 9.449132659326889 -66.8526025834545 15.250035292930786 -30.450713879323366 -89.47828620283812 12.362256330407542 -122.36018336403914 -32.2585701528604 -6.7028296055574 4.523430482324006 -0.47502440933884527 0.06427488714933387 -8.08709113833742 0.01765196295621652 0.010625765187602084 44.53359801716879 0.029691172238336706 -0.020706031585981482 44.555836735667086 12.490576627700568 0.019469778303789962 -0.006042585157232035 -0.01880859251895738 -0.003379059245558902 0.027914367316407247 0.0007992452926057377 -0.007046410162617578 0.005426529529578414 11.086163637171573 -0.010173541782074755 -0.020506530795521286 0.04014818140573358 0.009799735025240612 -0.03654661182110295 -0.0054795457070925604 0.002124612818484918 -0.009040050055235518 4.746180004992632 -0.032235176540200416 -0.03223908330745415 -0.028399066752540905 0.0032829095582438813 -0.036602837185437435 -0.03953493518185562 0.011020531592534015 -0.0285446642649579 -5.625953905777829 -0.01672495981390396 -0.04384728784135822 -6.740196039426075 0.016560612560185272 0.03721348796965964 -6.7504182414232154 -0.014682279096133531 -0.04076460996327832 -0.027253470422767285 -0.04090527147338046 -0.010414554868677118 8.033874492012831 3.4904757783609317 -19.266821074597495 -0.03599455502557916 10.363975795737915 -0.027721458234681116 -5.622769839084146 -15.63793546393634 3.2032765552106315 0.013794716107920485 0.031438742937703934 -0.003795637226224777 -0.03488986565536946 4.685574888034179 0.005811539453748132 12.457570992142694 -8.261145123246163 6.926897750876913 0.019482416011791952 46.36192593150096 0.0034112779194627424 -4.33534263031447 -14.756494255817348 -3.8613357484930706 -0.036174289056497694 -0.026814519411711125 -0.04585327677212163 -0.0461551826054873 -10.77477220030499 0.04208889733705236 
0.00921356669861611 -0.026073577218241342 0.03571610426717666 0.044066654965945216 -0.032435421667116104 0.03988559054172182 -3.408367699204812 4.806597348414654 -0.7022001425680665 -0.6381706233172237 3.2605486840986417 0.29683802912532553 -0.666401198908097 -0.7120205658876606 -1.5046969107739143 -1.222866838129063 0.04068200448342986 -0.9231807272140777 -1.721539399879491 10.231496353712744 3.7607535288312453 -0.19062758619716583 -1.2428841456105182 7.106719187969986 -1.2483681303102665 -16.118820555895145 0.6026649674390925 2.450217930722074 0.22757745186646214 -10.622020368057976 68.85234155426329 9.301163068291158 20.612760251394235 48.51252107810624 20.12335584634806 101.85403417185454 24.83502586567689 -0.07372940977041532 -10.951879310621607 4.526837525842743 -0.1498054820681426 -1.6130954276382043 -0.009587701082850262 0.014014516543195486 -56.24935858593039 0.01265024004213106 0.04268863856589766 -56.23293036389372 -38.75586915275505 0.023506307008173157 -0.03461151438814017 0.03727528006161918 -0.018785592893507324 0.001675651046802147 0.005559438027660672 0.03212612258574651 -0.024486448905749088 -36.685882185043624 0.03258507177907645 -0.016147330991614948 0.03643094327969318 0.02474257237315772 0.019712713992597275 -0.006894380952162043 0.0374187965080632 0.03199035523905518 -19.709854509896605 0.027622826590208777 0.01594936780498568 -0.022154259116897473 -0.02069734084006633 0.01384729493972297 -0.033119573291193 0.016615821757214697 0.031082059722571626 24.013498963292605 0.003974633911360183 -0.022835083321388255 28.899670362162144 0.013425543322825351 0.019318444164891656 28.846862186609144 0.04613674032551318 -0.04110655240930545 3.2520277977943395 1.1737119109762784 9.65293878397837 -67.94517832092052 16.18820464080273 -29.801093754773024 -90.49343999519189 12.976821981558487 -123.0551306414611 -32.36207688171889 -7.329268480120361 5.216597032005984 -0.4717323988918935 0.021122340508618533 -8.151190912497094 0.03663821058397557 -0.028311124199493925 44.56773060227957 0.02991190786458821 0.03738063496267017 44.544531060505115 12.50210811638125 0.04030436642413497 0.03721339551372169 -0.028853694803091953 -0.03710135818025339 0.017373667061965744 -0.011824944045205432 0.01914157402302401 0.02980140793365548 11.09213546140244 0.022884033494811804 -0.0120287762140822 0.04146769696793141 0.00863361674386068 -0.03960563967442669 -0.013105432605476655 -0.03128081218239191 0.001593448262822981 4.783773580670757 -0.011219292358494353 -0.005657644021124084 0.04143195492225897 0.021164742951167465 0.019083201309481747 -0.04130288144805445 -0.043964116687371026 -0.017754100479259457 -5.641963497759312 -0.041229748899000475 0.014769742582440872 -6.680177521825568 0.0051736361439421435 0.04031636196230618 -6.698642121242738 -0.03501352962933058 0.011310716368702216 -0.030370774355443393 0.008334812854656013 0.026614357911593358 8.052081622257209 3.4798431920173503 -19.185511787059223 0.03872101592893549 10.38917169067899 0.03788274923056001 -5.600771207779768 -15.691093594890006 3.204361872192189 0.04681231587151572 0.026482877369808824 -0.009560115360546696 0.0021522278403234823 4.668504723553315 0.010168382334639132 12.473525681729308 -8.200397570012333 6.9108781928836995 0.003514497310526579 46.33044060477447 0.004800150334224396 -4.298067683529951 -14.757433443245954 -3.8554927719766408 -0.040524029388378915 0.03615284202960121 -0.000139156328722775 -0.011369677048967602 -10.713029581532885 0.025398627699680393 
